<svg width="48" height="48" viewBox="0 0 48 48" fill="none" xmlns="http://www.w3.org/2000/svg">
<rect width="48" height="48" fill="white"/>
<g clip-path="url(#clip0_1047_46)">
<path d="M11.3594 23.5862C11.1781 23.2126 11.3332 22.776 11.5398 22.5332C11.9532 22.0477 12.57 21.8074 12.998 21.6572C13.127 21.6121 14.4333 21.1127 16.2292 20.4207L16.1573 20.2341C16.1573 20.2341 16.1573 20.2341 16.1573 20.2341C17.953 19.5422 20.2855 18.6412 22.6216 17.7378L22.6922 17.9205L22.6216 17.7378C25.0369 16.8038 27.452 15.8691 29.282 15.1608C30.9759 14.5052 32.1685 14.0436 32.3959 13.9562L11.1794 23.6734M11.3594 23.5862L11.1794 23.6734M11.3594 23.5862L11.1795 23.6736C11.1795 23.6735 11.1794 23.6735 11.1794 23.6734M11.3594 23.5862C11.5406 23.9602 11.8897 24.1666 12.3838 24.3552L12.399 24.361L12.4146 24.3658M11.1794 23.6734C11.3959 24.1203 11.8094 24.35 12.3125 24.5421L12.3125 24.5421L12.3277 24.5479L12.3276 24.5483L12.3402 24.5522L12.3557 24.557L12.4146 24.3658M12.4146 24.3658L12.3558 24.557C14.0376 25.0756 16.5202 25.8533 17.1362 26.0464M12.4146 24.3658C14.2144 24.9208 16.9308 25.7723 17.2969 25.8871M17.2969 25.8871L17.1055 25.9452C17.1116 25.9652 17.122 25.9994 17.1362 26.0464M17.2969 25.8871L17.2371 26.078C17.2132 26.0705 17.1792 26.0599 17.1362 26.0464M17.2969 25.8871C17.3919 26.2005 18.5381 29.9736 19.1619 32.0156C19.3221 32.4382 19.7976 32.7214 20.2392 32.6616M17.1362 26.0464C17.345 26.7341 18.3867 30.1625 18.9706 32.0741L18.9702 32.0742L18.9749 32.0865C19.1657 32.59 19.7195 32.925 20.2489 32.862M20.2489 32.862C20.2432 32.8619 20.2377 32.8617 20.2324 32.8615L20.2392 32.6616M20.2489 32.862C20.3412 32.8643 20.4992 32.8607 20.6755 32.8184M20.2489 32.862C20.2546 32.8613 20.2603 32.8606 20.266 32.8598L20.2392 32.6616M20.2392 32.6616C20.3186 32.6643 20.4656 32.663 20.629 32.6238M20.6755 32.8184L20.629 32.6238M20.6755 32.8184C20.6756 32.8183 20.6756 32.8183 20.6757 32.8183L20.629 32.6238M20.6755 32.8184L21.606 32.3004M20.629 32.6238C20.8673 32.5668 21.1744 32.4314 21.4664 32.1571L21.4666 32.1569M21.4666 32.1569L21.4723 32.163L21.6035 32.3027C21.6043 32.302 21.6052 32.3012 21.606 32.3004M21.4666 32.1569L21.6084 32.298L21.6082 32.2982L21.606 32.3004M21.4666 32.1569C21.8819 31.7669 23.3591 30.3196 23.7998 29.8876M21.606 32.3004C21.9936 31.9362 23.2757 30.6813 23.8181 30.1498M23.7998 29.8876L23.681 30.0485L23.8181 30.1498M23.7998 29.8876L28.6268 33.4519L23.8181 30.1498M23.7998 29.8876L23.9398 30.0305C23.9053 30.0643 23.8644 30.1044 23.8181 30.1498M30.014 32.7278C30.0893 32.6728 30.1915 32.5573 30.2645 32.2405C30.7654 30.0051 31.2717 27.5645 31.7978 25.0286C32.3845 22.2005 32.9958 19.2539 33.6515 16.3411L30.014 32.7278ZM30.014 32.7278C29.9386 32.783 29.8527 32.8022 29.7256 32.7936L30.014 32.7278ZM30.0695 32.1962C30.5699 29.9626 31.0759 27.5238 31.602 24.9876C31.6323 24.8417 31.6626 24.6954 31.6931 24.5488C32.2519 21.8557 32.8341 19.0614 33.4564 16.2972L33.4582 16.2891L33.4584 16.2892C33.6837 15.4524 33.4973 15.2277 33.4626 15.1974L33.4962 15.1589L33.3125 15.156M30.0695 32.1962L32.868 15.059C33.0197 14.9887 33.1614 14.9577 33.282 14.9558H33.3055L33.3023 15.1557C33.3058 15.1558 33.3092 15.1559 33.3125 15.156M30.0695 32.1962C30.0036 32.4817 29.921 32.5481 29.896 32.5663L29.8959 32.5665C29.8709 32.5848 29.8372 32.6007 29.7391 32.5941C29.6457 32.5877 29.5345 32.5536 29.4369 32.5147C29.3899 32.4959 29.3494 32.4773 29.3201 32.4631C29.3055 32.4561 29.2938 32.4502 29.2856 32.446L29.2836 32.4449L21.6672 26.8213M30.0695 32.1962L21.6672 26.8213M33.3125 15.156L33.3023 15.1558C33.2107 15.1544 33.0901 15.1765 32.9522 15.2405L32.9404 15.2459L32.9403 15.2455C29.6725 16.5116 26.3971 17.7789 23.1264 19.0436L23.0543 18.857L23.1264 19.0436C20.7905 19.9468 18.4575 20.8484 16.6609 21.5407C14.8672 22.2318 13.6495 22.7003 13.3953 22.7895C13.2441 22.8425 13.032 22.9421 12.8396 23.0493C12.7701 23.088 12.7049 23.1268 12.6474 23.1637C12.69 23.1838 12.7405 23.2057 12.8004 23.2289C14.516 23.7581 17.0635 24.5562 17.628 24.7333C18.5654 24.1653 24.8284 20.3738 28.1936 18.4043L28.1998 18.4007L28.2063 18.3975C28.3611 18.3213 28.5057 18.2327 28.6591 18.1387C28.7353 18.0919 28.8138 18.0439 28.8968 17.9953C29.1368 17.8548 29.4009 17.7199 29.6987 17.6597L29.7168 17.6561L29.7352 17.6558C30.0347 17.6511 30.265 17.843 30.3668 18.0723C30.4695 18.3038 30.4546 18.605 30.23 18.8212L30.2262 18.8249L30.2261 18.8249C27.5707 21.2482 22.8438 25.7095 21.6672 26.8213M33.3125 15.156C33.4006 15.1591 33.4471 15.1839 33.4628 15.1976L33.4965 15.1589M21.6672 26.8213L33.5941 15.0467L33.5055 15.1485M33.4965 15.1589L33.5055 15.1591V15.1485M33.4965 15.1589L33.5055 15.1485M33.4965 15.1589L33.5055 15.1485M21.026 30.9168L21.2047 28.2199L22.6771 29.3071C22.2238 29.7508 21.4985 30.4599 21.026 30.9168Z" fill="black" stroke="black" stroke-width="0.4"/>
</g>
<defs>
<clipPath id="clip0_1047_46">
<rect width="24" height="24" fill="white" transform="translate(11 12)"/>
</clipPath>
</defs>
</svg>
