<svg width="220" height="150" viewBox="0 0 220 150" fill="none" xmlns="http://www.w3.org/2000/svg"><g clip-path="url(#a)"><path fill="#fff" d="M0 0h220v150H0z"/><path fill="#fff" d="M0 0h220v150H0z"/><g clip-path="url(#b)" fill="#000"><path d="M87.16 38.347h18.133v49.3a6.853 6.853 0 0 0 2.026 4.792l.762.762h-20.92l1.302-1.303a5.72 5.72 0 0 0 1.676-4.03v-44.95a4.608 4.608 0 0 0-1.79-3.634l-1.189-.937Z"/><path d="M105.994 38.347s19.389-1.074 20.045 14.475c.7 16.533-16.967 16.472-16.967 16.472l15.946 19.656a32.265 32.265 0 0 0 4.281 4.495l.648.564-6.011-1.524-18.643-24.159s13.081-1.402 13.63-14.43c.586-13.82-12.929-15.55-12.929-15.55Z"/><path d="M135.257 52.822c-.656-15.55-23.496-14.475-23.496-14.475s18.764 2.43 18.185 16.25c-.533 13.028-17.736 15.931-17.736 15.931l17.736 22.048 4.038 2.103-.647-.571a33.278 33.278 0 0 1-4.206-4.457l-14.513-18.544s21.34-1.783 20.639-18.285Zm7.695 52.676v1.509l17.439-.755-17.439-.754Zm-65.429 0v1.509l-17.439-.755 17.44-.754Zm10.445 2.072a2.285 2.285 0 0 1-2.286 2.286h-3.504v-6.994h2.819a1.732 1.732 0 0 1 1.704 1.027c.096.217.146.45.147.687a1.67 1.67 0 0 1-.244.861 2.284 2.284 0 0 1 1.364 2.133Zm-5.105-4.045v1.744h3.048c.17-.191.262-.438.259-.693a1.04 1.04 0 0 0-.705-1.002 1.032 1.032 0 0 0-.43-.049h-2.172Zm4.389 4.045a1.573 1.573 0 0 0-.996-1.528 1.582 1.582 0 0 0-.635-.11h-2.758v3.268h2.743a1.57 1.57 0 0 0 1.177-.457 1.586 1.586 0 0 0 .469-1.173Zm10.575 1.63v.663h-4.084v-7.002h4.03v.663H94.46v2.484h3.048v.663H94.46v2.529h3.368Zm9.92-1.044h-3.391l-.662 1.722h-.762l2.742-7.017h.762l2.743 7.017h-.762l-.67-1.722Zm-.259-.663-1.44-3.756-1.44 3.756h2.88Zm6.886.298v-4.93h.716v4.93c0 1.013.709 1.523 1.737 1.523 1.029 0 1.737-.51 1.737-1.523v-4.93h.716v4.93c0 1.432-1.097 2.209-2.453 2.209-1.356 0-2.453-.8-2.453-2.209Zm15.124-4.267h-1.997v6.354h-.716v-6.354h-1.988v-.663h4.701v.663Zm8.091 3.086v3.268h-.716v-3.291l-2.477-3.726h.808l2.034 3.048 2.019-3.048h.823l-2.491 3.749Z"/></g></g><defs><clipPath id="a"><path fill="#fff" d="M0 0h220v150H0z"/></clipPath><clipPath id="b"><path fill="#fff" transform="translate(60.084 38.347)" d="M0 0h100.307v71.653H0z"/></clipPath></defs></svg>