<svg width="175" height="18" viewBox="0 0 175 18" fill="none" xmlns="http://www.w3.org/2000/svg"><path fill-rule="evenodd" clip-rule="evenodd" d="M1.672 1.772h5.59c3.907 0 7.19 3.202 7.19 7.23 0 3.944-3.284 7.146-7.19 7.23h-5.59V1.772Zm2.396 1.725v11.01h2.574c3.55-.084 5.325-2.711 5.325-5.425 0-2.795-1.775-5.094-4.705-5.506l-3.194-.08ZM23.861 1.44c4.794 0 8.609 3.369 8.609 7.56 0 4.188-3.816 7.558-8.609 7.558-4.704 0-8.608-3.37-8.608-7.558-.001-4.19 3.904-7.56 8.608-7.56Zm0 1.808c3.462 0 6.302 2.547 6.302 5.753 0 3.121-2.84 5.668-6.302 5.668-3.372 0-6.213-2.546-6.213-5.668 0-3.206 2.84-5.753 6.213-5.753Zm9.32-1.477h2.307v12.735h4.438v1.725H33.18V1.772Zm14.2-.411c1.775 0 3.462.49 4.882 1.314v2.63c-1.155-1.317-2.93-2.14-4.882-2.14-3.462 0-6.213 2.631-6.213 5.837 0 3.121 2.751 5.749 6.213 5.749 1.953 0 3.727-.819 4.882-2.136v2.711a9.774 9.774 0 0 1-4.882 1.318c-4.704 0-8.608-3.453-8.608-7.641 0-4.193 3.905-7.642 8.608-7.642Zm7.988 13.146h5.592v1.724h-7.988V1.773h7.987v1.64h-5.59v4.271h5.592v1.729H55.37v5.094Zm14.38.739a3.164 3.164 0 0 1-.89.574c-.266.164-.62.248-.976.328-.088 0-.177 0-.265.083h-.267c-.266 0-.444-.084-.71-.084a2.7 2.7 0 0 1-.711-.327c-.177-.164-.355-.411-.532-.658-.089-.244-.177-.492-.266-.739v-.41h.088v-.163c.088-.411.267-.738.621-1.07.354-.243.71-.49 1.065-.738a118.27 118.27 0 0 1-.533-.739c-.178-.164-.266-.49-.266-.738v-.331c.088 0 .088-.08.088-.08.09-.327.268-.574.534-.822.354-.164.62-.248.976-.248h.267c.353 0 .798.168 1.153.411.266.248.443.575.443 1.07 0 .412-.088.74-.355.986-.355.328-.62.575-.975.739l1.686 1.888c.088-.164.266-.327.444-.574.177-.164.266-.327.445-.491l.532.49c-.089.165-.267.332-.355.495-.089.164-.267.328-.445.492l-.088.083s0 .08-.089.08l1.242 1.317h-1.065l-.796-.823Zm-2.043.247c.267 0 .533-.083.799-.247.178-.164.443-.327.622-.495h.088l.09-.08-1.953-2.056c0 .084 0 .084-.09.084l-.088.08c-.178.083-.266.167-.443.247-.18.164-.266.247-.355.411-.088 0-.088.084-.088.164-.09.084-.09.164-.09.248-.088.083-.088.163-.088.163v.248c0 .327.088.575.356.902.354.248.62.331 1.064.331h.176Zm-.71-5.094v.163c0 .164 0 .328.09.491.088.164.266.331.354.412.088.083.088.083.178.164l.088.083h.089s.088 0 .088-.083c.178-.08.356-.164.534-.327.177-.164.266-.328.354-.575v-.163c0-.248-.088-.412-.266-.575-.178-.083-.354-.164-.532-.164h-.178c-.177 0-.355 0-.533.164a.44.44 0 0 0-.266.41Zm17.13-9.122c3.107 0 5.858 1.481 7.456 3.617l-2.041.986c-1.154-1.644-3.108-2.714-5.326-2.714-3.55 0-6.302 2.63-6.302 5.836 0 3.202 2.752 5.749 6.302 5.749 2.93 0 5.236-1.314 5.415-4.108h-5.06V8.918h7.546v.084c0 4.519-2.665 7.72-7.989 7.72-5.326 0-8.698-3.449-8.698-7.72 0-4.276 3.904-7.725 8.697-7.725Zm6.657 14.955 6.48-14.46h1.51l6.477 14.46h-2.484l-1.775-4.108h-5.948l-1.774 4.108h-2.486Zm5.15-5.917 2.128-5.178 2.042 5.178h-4.17Zm32.039 5.917 6.391-14.46h1.508l6.479 14.46h-2.484l-1.774-4.108h-5.949l-1.775 4.108h-2.396Zm5.059-5.917 2.13-5.178 2.13 5.178h-4.26Zm25.828 5.917 6.48-14.46h1.509l6.48 14.46h-2.487l-1.862-4.108h-5.859l-1.774 4.108h-2.487Zm5.148-5.917 2.042-5.178 2.13 5.178h-4.172Zm-53.165-6.902c1.598.164 2.129.739 2.129 2.22 0 1.397-1.065 2.136-2.396 2.136h-2.042V3.413h2.309Zm.178 6.08h.088c1.154 0 3.196.247 3.196 2.63 0 1.889-1.775 2.384-3.462 2.384h.353-2.662V9.492h2.487v.001Zm-3.017 6.739h3.993c2.752 0 4.794-1.725 4.794-4.108 0-1.893-1.244-3.286-3.019-3.861.977-.579 1.51-1.645 1.51-2.959 0-2.14-1.51-3.533-3.906-3.533-1.244-.083-2.574 0-3.816 0h-1.42v14.46h1.864Zm14.732-12.819c1.509.164 2.042.739 2.13 2.22 0 1.397-1.065 2.136-2.397 2.136h-2.041V3.413h2.308Zm.09 6.08h.089c1.153 0 3.193.247 3.193 2.63 0 1.889-1.775 2.384-3.461 2.384h.444-2.663V9.492h2.398v.001Zm-3.019 6.739h4.084c2.751 0 4.703-1.725 4.703-4.108 0-1.893-1.242-3.286-3.017-3.861 1.065-.579 1.596-1.645 1.596-2.959 0-2.14-1.596-3.533-3.905-3.533-1.331-.083-2.573 0-3.906 0h-1.418v14.46h1.863Zm23.61-14.46h1.509l10.917 10.68V1.771h2.13v14.46h-1.598l-10.74-10.6v10.6h-2.218V1.772Z" fill="#000"/></svg>