<svg width="220" height="150" viewBox="0 0 220 150" fill="none" xmlns="http://www.w3.org/2000/svg">
<rect width="220" height="150" fill="white"/>
<path d="M38.8306 70.9564V67.968C38.8306 67.968 31.2202 63.5401 24.9888 67.968C24.0397 68.819 23.2823 69.8622 22.7671 71.0283C22.2518 72.1944 21.9905 73.4567 22.0003 74.7316C22.0003 79.1357 25.4607 81.495 25.4607 81.495C25.4607 81.495 31.0624 85.4271 39.0842 81.495V73.945H30.4155V76.7763H35.9382V79.6072C35.9382 79.6072 25.6182 83.2441 25.7753 74.6266C25.7753 74.6266 25.3036 69.8554 30.4155 69.2262C30.4155 69.2262 33.7972 68.2824 38.8306 70.9564Z" fill="#000"/>
<path d="M52.2005 66.0107H49.0547V83.2429H52.2005V66.0107Z" fill="#000"/>
<path d="M60.2227 66.0107H63.8403L69.0308 78.5065L74.3788 66.0107H78.1539L70.4465 82.8497H67.6154L60.2227 66.0107Z" fill="#000"/>
<path d="M85.7031 66.0107V83.2428H99.7021V80.0794H89.1635V75.9898H96.5564V73.3159H89.1635V69.2264H99.7021V66.0107H85.7031Z" fill="#000"/>
<path d="M108.825 82.8497H112.129V71.7433L122.353 82.8497H125.184V66.0107H122.038V77.5633L111.56 66.0107H108.825V82.8497Z" fill="#000"/>
<path d="M149.249 71.4288C149.249 71.4288 148.148 69.2267 142.643 69.0695C142.643 69.0695 135.88 69.0166 136.194 74.6269C136.509 80.2372 142.716 79.9226 142.716 79.9226C142.716 79.9226 148.463 79.7651 149.25 77.8778V81.4344C149.25 81.4344 147.979 82.8499 142.716 83.2429C142.716 83.2429 132.734 83.5402 132.734 75.361C132.734 75.361 132.105 65.7835 142.014 66.0108C142.014 66.0108 147.519 65.9235 149.249 67.4965V71.4288Z" fill="#000"/>
<path d="M158.215 66.0107H161.675V73.1592H170.641V66.0107H173.944V82.8497H170.798V76.1476H161.518V82.8497H158.215V66.0107Z" fill="#000"/>
<path d="M187.314 75.9903V82.8497H190.774V75.9903L198.639 66.0107H194.549L189.044 73.002L183.854 66.0107H179.606L187.314 75.9903Z" fill="#000"/>
</svg>
