<svg xmlns="http://www.w3.org/2000/svg" width="177" height="18" viewBox="0 0 177 18" fill="none">
  <path d="M16.8306 4.95641V1.96796C16.8306 1.96796 9.22015 -2.45995 2.98882 1.96796C2.03966 2.81905 1.28234 3.86224 0.767094 5.02833C0.251847 6.19442 -0.00954276 7.45675 0.000266186 8.73156C0.000266186 13.1357 3.46065 15.495 3.46065 15.495C3.46065 15.495 9.0624 19.4271 17.0842 15.495V7.94496H8.41553V10.7763H13.9382V13.6072C13.9382 13.6072 3.61817 17.2441 3.77531 8.62656C3.77531 8.62656 3.30358 3.85538 8.41548 3.22616C8.41548 3.22616 11.7972 2.28245 16.8306 4.95641Z" fill="#000"/>
  <path d="M30.2005 0.0107422H27.0547V17.2429H30.2005V0.0107422Z" fill="#000"/>
  <path d="M38.2227 0.0107422H41.8403L47.0308 12.5065L52.3788 0.0107422H56.1539L48.4465 16.8497H45.6154L38.2227 0.0107422Z" fill="#000"/>
  <path d="M63.7031 0.0107422V17.2428H77.7021V14.0794H67.1635V9.98983H74.5564V7.31594H67.1635V3.22636H77.7021V0.0107422H63.7031Z" fill="#000"/>
  <path d="M86.8252 16.8497H90.1288V5.74326L100.353 16.8497H103.184V0.0107422H100.038V11.5633L89.56 0.0107422H86.8252V16.8497Z" fill="#000"/>
  <path d="M127.249 5.4288C127.249 5.4288 126.148 3.22674 120.643 3.06947C120.643 3.06947 113.88 3.01659 114.194 8.62689C114.509 14.2372 120.716 13.9226 120.716 13.9226C120.716 13.9226 126.463 13.7651 127.25 11.8778V15.4344C127.25 15.4344 125.979 16.8499 120.716 17.2429C120.716 17.2429 110.734 17.5402 110.734 9.36099C110.734 9.36099 110.105 -0.216547 120.014 0.010821C120.014 0.010821 125.519 -0.076474 127.249 1.49649V5.4288Z" fill="#000"/>
  <path d="M136.215 0.0107422H139.675V7.15921H148.641V0.0107422H151.944V16.8497H148.798V10.1476H139.518V16.8497H136.215V0.0107422Z" fill="#000"/>
  <path d="M165.314 9.99034V16.8497H168.774V9.99034L176.639 0.0107422H172.549L167.044 7.00196L161.854 0.0107422H157.606L165.314 9.99034Z" fill="#000"/>
</svg>
