<svg xmlns="http://www.w3.org/2000/svg" width="20" height="20" viewBox="0 0 20 20" fill="none">
  <path fill-rule="evenodd" clip-rule="evenodd" d="M9.78283 1.66699C14.2578 1.66699 17.8978 5.30699 17.8978 9.78199C17.8978 11.8933 17.0876 13.8189 15.7617 15.2641L18.3707 17.8676C18.6148 18.1117 18.6157 18.5067 18.3715 18.7509C18.2498 18.8742 18.089 18.9351 17.929 18.9351C17.7698 18.9351 17.6098 18.8742 17.4873 18.7526L14.8469 16.1195C13.4579 17.2319 11.6967 17.8978 9.78283 17.8978C5.30783 17.8978 1.66699 14.257 1.66699 9.78199C1.66699 5.30699 5.30783 1.66699 9.78283 1.66699ZM9.78283 2.91699C5.99699 2.91699 2.91699 5.99616 2.91699 9.78199C2.91699 13.5678 5.99699 16.6478 9.78283 16.6478C13.5678 16.6478 16.6478 13.5678 16.6478 9.78199C16.6478 5.99616 13.5678 2.91699 9.78283 2.91699Z" fill="#757575" stroke="#757575" stroke-width="0.5"/>
</svg>
