<svg width="220" height="150" viewBox="0 0 220 150" fill="none" xmlns="http://www.w3.org/2000/svg">
<g clip-path="url(#clip0_1333_425)">
<rect width="220" height="150" fill="white"/>
<rect width="220" height="150" fill="white"/>
<g clip-path="url(#clip1_1333_425)">
<path d="M87.1602 38.3467H105.293V87.6469C105.312 89.4485 106.04 91.1699 107.319 92.439L108.081 93.2009H87.1602L88.4629 91.8981C89.5323 90.8289 90.1349 89.38 90.139 87.8678V42.9179C90.1371 42.2158 89.9748 41.5234 89.6645 40.8936C89.3542 40.2638 88.9042 39.7132 88.3487 39.2838L87.1602 38.3467Z" fill="black"/>
<path d="M105.994 38.3469C105.994 38.3469 125.383 37.2727 126.039 52.8223C126.739 69.3548 109.072 69.2938 109.072 69.2938L125.018 88.9499C126.297 90.5823 127.731 92.0876 129.299 93.4449L129.947 94.0087L123.936 92.4849L105.293 68.3262C105.293 68.3262 118.374 66.9244 118.923 53.8965C119.509 40.0763 105.994 38.3469 105.994 38.3469Z" fill="black"/>
<path d="M135.257 52.8223C134.601 37.2727 111.761 38.3469 111.761 38.3469C111.761 38.3469 130.525 40.7772 129.946 54.5974C129.413 67.6253 112.21 70.528 112.21 70.528L129.946 92.5764L133.984 94.6791L133.337 94.1077C131.801 92.7547 130.393 91.2627 129.131 89.6508L114.618 71.107C114.618 71.107 135.958 69.3243 135.257 52.8223Z" fill="black"/>
<path d="M142.952 105.498V107.007L160.391 106.252L142.952 105.498Z" fill="black"/>
<path d="M77.5231 105.498V107.007L60.084 106.252L77.5231 105.498Z" fill="black"/>
<path d="M87.9679 107.57C87.9679 108.176 87.7271 108.758 87.2985 109.186C86.8698 109.615 86.2885 109.856 85.6823 109.856H82.1777V102.862H84.9966C85.2325 102.845 85.4693 102.877 85.6924 102.955C85.9154 103.034 86.12 103.157 86.2936 103.318C86.4671 103.479 86.6058 103.673 86.7011 103.889C86.7965 104.106 86.8465 104.339 86.848 104.576C86.8466 104.88 86.7623 105.177 86.6042 105.437C87.0164 105.618 87.3658 105.918 87.6084 106.297C87.851 106.677 87.9761 107.12 87.9679 107.57ZM82.8634 103.525V105.269H85.9109C86.0803 105.078 86.1726 104.831 86.1699 104.576C86.1727 104.43 86.1446 104.285 86.0874 104.15C86.0302 104.016 85.9452 103.895 85.838 103.796C85.7308 103.696 85.6038 103.621 85.4654 103.574C85.3269 103.527 85.1802 103.511 85.0347 103.525H82.8634ZM87.2517 107.57C87.2603 107.353 87.224 107.137 87.1451 106.935C87.0663 106.733 86.9467 106.549 86.7936 106.396C86.6406 106.242 86.4575 106.121 86.2558 106.042C86.0541 105.962 85.8381 105.925 85.6214 105.932H82.8634V109.2H85.6061C85.8232 109.209 86.0397 109.173 86.2422 109.094C86.4446 109.015 86.6288 108.896 86.7831 108.743C86.9374 108.59 87.0586 108.407 87.1393 108.205C87.2199 108.003 87.2582 107.787 87.2517 107.57Z" fill="black"/>
<path d="M97.8268 109.2V109.863H93.7432V102.861H97.7734V103.524H94.4593V106.008H97.5068V106.671H94.4593V109.2H97.8268Z" fill="black"/>
<path d="M107.747 108.156H104.356L103.694 109.878H102.932L105.674 102.861H106.436L109.179 109.878H108.417L107.747 108.156ZM107.488 107.493L106.048 103.737L104.608 107.493H107.488Z" fill="black"/>
<path d="M114.374 107.791V102.861H115.09V107.791C115.09 108.804 115.799 109.314 116.827 109.314C117.856 109.314 118.564 108.804 118.564 107.791V102.861H119.28V107.791C119.28 109.223 118.183 110 116.827 110C115.471 110 114.374 109.2 114.374 107.791Z" fill="black"/>
<path d="M129.498 103.524H127.501V109.878H126.785V103.524H124.797V102.861H129.498V103.524Z" fill="black"/>
<path d="M137.589 106.61V109.878H136.873V106.587L134.396 102.861H135.204L137.238 105.909L139.257 102.861H140.08L137.589 106.61Z" fill="black"/>
</g>
</g>
<defs>
<clipPath id="clip0_1333_425">
<rect width="220" height="150" fill="white"/>
</clipPath>
<clipPath id="clip1_1333_425">
<rect width="100.307" height="71.6533" fill="white" transform="translate(60.084 38.3467)"/>
</clipPath>
</defs>
</svg>
