<svg width="186" height="24" viewBox="0 0 186 24" fill="none" xmlns="http://www.w3.org/2000/svg">
<path d="M43.0972 21.1056C41.8752 21.1056 40.7707 20.8354 39.7837 20.2949C38.8085 19.7544 38.0389 19.0083 37.4749 18.0565C36.9226 17.093 36.6465 16.0179 36.6465 14.8311C36.6465 13.6444 36.9226 12.5751 37.4749 11.6234C38.0389 10.6599 38.8144 9.90789 39.8014 9.36739C40.7884 8.82689 41.8929 8.55664 43.1149 8.55664C44.0314 8.55664 44.8774 8.70939 45.6529 9.01489C46.4284 9.32039 47.0864 9.76689 47.6269 10.3544L46.7985 11.1828C45.835 10.2075 44.6189 9.71989 43.1501 9.71989C42.1749 9.71989 41.2877 9.94314 40.4887 10.3896C39.6897 10.8361 39.0611 11.4471 38.6029 12.2226C38.1564 12.9981 37.9331 13.8676 37.9331 14.8311C37.9331 15.7946 38.1564 16.6641 38.6029 17.4396C39.0611 18.2151 39.6897 18.8261 40.4887 19.2726C41.2877 19.7191 42.1749 19.9424 43.1501 19.9424C44.6306 19.9424 45.8467 19.4489 46.7985 18.4619L47.6269 19.2903C47.0864 19.8778 46.4225 20.3301 45.6352 20.6474C44.8597 20.9529 44.0137 21.1056 43.0972 21.1056Z" fill="#838383"/>
<path d="M58.6148 19.9071V23.2383H57.4339V20.9999H49.1326V23.2383H47.9517V19.9071H48.4804C49.1032 19.8719 49.5262 19.4136 49.7494 18.5324C49.9727 17.6511 50.1254 16.4174 50.2077 14.8311L50.3311 11.7291H57.1696V19.9071H58.6148ZM51.3533 14.9016C51.2946 16.2176 51.1829 17.3045 51.0184 18.1623C50.8539 19.0083 50.5602 19.5899 50.1372 19.9071H55.9182V12.8395H51.4591L51.3533 14.9016Z" fill="#838383"/>
<path d="M69.161 16.7523H61.406C61.4765 17.7158 61.8466 18.4971 62.5164 19.0964C63.1861 19.6839 64.0322 19.9776 65.0544 19.9776C65.6301 19.9776 66.1589 19.8778 66.6406 19.678C67.1224 19.4665 67.5395 19.161 67.892 18.7615L68.597 19.5723C68.1858 20.0658 67.6688 20.4418 67.046 20.7003C66.435 20.9588 65.7594 21.088 65.0191 21.088C64.0674 21.088 63.2214 20.8883 62.4812 20.4888C61.7527 20.0775 61.1828 19.5135 60.7715 18.7968C60.3603 18.08 60.1547 17.2693 60.1547 16.3645C60.1547 15.4598 60.3485 14.649 60.7363 13.9323C61.1358 13.2155 61.6763 12.6574 62.3578 12.2579C63.051 11.8584 63.8265 11.6586 64.6843 11.6586C65.542 11.6586 66.3116 11.8584 66.9931 12.2579C67.6747 12.6574 68.2093 13.2155 68.597 13.9323C68.9848 14.6373 69.1786 15.448 69.1786 16.3645L69.161 16.7523ZM64.6843 12.7338C63.7913 12.7338 63.0393 13.0216 62.4283 13.5974C61.829 14.1614 61.4883 14.9016 61.406 15.8181H67.9802C67.8979 14.9016 67.5513 14.1614 66.9403 13.5974C66.341 13.0216 65.589 12.7338 64.6843 12.7338Z" fill="#838383"/>
<path d="M79.3381 11.7291V20.9999H78.0867V12.8395H73.6452L73.5218 15.1308C73.4278 17.0578 73.2046 18.5383 72.8521 19.5723C72.4996 20.6063 71.871 21.1233 70.9662 21.1233C70.7195 21.1233 70.4198 21.0763 70.0673 20.9823L70.1555 19.9071C70.367 19.9541 70.5138 19.9776 70.5961 19.9776C71.0778 19.9776 71.4421 19.7544 71.6888 19.3079C71.9356 18.8614 72.1001 18.3091 72.1823 17.6511C72.2646 16.9931 72.3351 16.1236 72.3938 15.0426L72.5525 11.7291H79.3381Z" fill="#838383"/>
<path d="M86.0856 11.6586C87.2958 11.6586 88.2241 11.9641 88.8703 12.5751C89.5166 13.1744 89.8397 14.0674 89.8397 15.2541V20.9999H88.6412V19.5546C88.3592 20.0364 87.9421 20.4124 87.3898 20.6826C86.8493 20.9529 86.2031 21.088 85.4511 21.088C84.4171 21.088 83.5946 20.8413 82.9836 20.3478C82.3726 19.8543 82.0671 19.2021 82.0671 18.3914C82.0671 17.6041 82.3491 16.9696 82.9131 16.4879C83.4888 16.0061 84.3994 15.7653 85.6449 15.7653H88.5883V15.2013C88.5883 14.4023 88.3651 13.7971 87.9186 13.3859C87.4721 12.9629 86.8199 12.7514 85.9622 12.7514C85.3747 12.7514 84.8107 12.8513 84.2702 13.051C83.7297 13.239 83.2656 13.5034 82.8778 13.8441L82.3138 12.91C82.7838 12.5105 83.3478 12.205 84.0058 11.9935C84.6638 11.7703 85.3571 11.6586 86.0856 11.6586ZM85.6449 20.101C86.3499 20.101 86.9551 19.9424 87.4603 19.6251C87.9656 19.2961 88.3416 18.8261 88.5883 18.2151V16.6994H85.6802C84.0939 16.6994 83.3008 17.2516 83.3008 18.3561C83.3008 18.8966 83.5064 19.3255 83.9177 19.6428C84.3289 19.9483 84.9047 20.101 85.6449 20.101Z" fill="#838383"/>
<path d="M93.171 11.7291H94.4223V15.8358H100.256V11.7291H101.508V20.9999H100.256V16.9109H94.4223V20.9999H93.171V11.7291Z" fill="#838383"/>
<path d="M108.889 21.088C107.996 21.088 107.191 20.8883 106.474 20.4888C105.758 20.0775 105.194 19.5135 104.782 18.7968C104.371 18.08 104.166 17.2693 104.166 16.3645C104.166 15.4598 104.371 14.649 104.782 13.9323C105.194 13.2155 105.758 12.6574 106.474 12.2579C107.191 11.8584 107.996 11.6586 108.889 11.6586C109.782 11.6586 110.587 11.8584 111.304 12.2579C112.02 12.6574 112.579 13.2155 112.978 13.9323C113.389 14.649 113.595 15.4598 113.595 16.3645C113.595 17.2693 113.389 18.08 112.978 18.7968C112.579 19.5135 112.02 20.0775 111.304 20.4888C110.587 20.8883 109.782 21.088 108.889 21.088ZM108.889 19.9776C109.547 19.9776 110.135 19.8308 110.652 19.537C111.18 19.2315 111.592 18.8026 111.885 18.2504C112.179 17.6981 112.326 17.0695 112.326 16.3645C112.326 15.6595 112.179 15.0309 111.885 14.4786C111.592 13.9264 111.18 13.5034 110.652 13.2096C110.135 12.9041 109.547 12.7514 108.889 12.7514C108.231 12.7514 107.638 12.9041 107.109 13.2096C106.592 13.5034 106.181 13.9264 105.875 14.4786C105.581 15.0309 105.435 15.6595 105.435 16.3645C105.435 17.0695 105.581 17.6981 105.875 18.2504C106.181 18.8026 106.592 19.2315 107.109 19.537C107.638 19.8308 108.231 19.9776 108.889 19.9776Z" fill="#838383"/>
<path d="M126.787 16.2059C128.044 16.4996 128.672 17.2575 128.672 18.4795C128.672 19.2903 128.373 19.913 127.773 20.3478C127.174 20.7825 126.281 20.9999 125.095 20.9999H120.882V11.7291H124.971C126.029 11.7291 126.857 11.9348 127.456 12.346C128.056 12.7573 128.355 13.3448 128.355 14.1085C128.355 14.6138 128.214 15.0485 127.932 15.4128C127.662 15.7653 127.28 16.0296 126.787 16.2059ZM122.098 15.8534H124.883C125.6 15.8534 126.146 15.7183 126.522 15.448C126.91 15.1778 127.104 14.7841 127.104 14.2671C127.104 13.7501 126.91 13.3624 126.522 13.1039C126.146 12.8454 125.6 12.7161 124.883 12.7161H122.098V15.8534ZM125.042 20.0129C125.841 20.0129 126.44 19.8836 126.839 19.6251C127.239 19.3666 127.439 18.9613 127.439 18.409C127.439 17.8568 127.257 17.4514 126.892 17.1929C126.528 16.9226 125.952 16.7875 125.165 16.7875H122.098V20.0129H125.042Z" fill="#838383"/>
<path d="M0 24L13.875 0L17.3438 6L13.875 12H20.8125L27.75 24H0Z" fill="#0061FF"/>
<path fill-rule="evenodd" clip-rule="evenodd" d="M179.31 16.6834C179.31 15.3474 180.369 14.3626 181.634 14.3626C182.967 14.3626 183.957 15.416 183.957 16.6834C183.957 18.0192 182.898 19.004 181.634 19.004C180.301 19.004 179.31 17.9592 179.31 16.6834ZM177.303 16.8717C177.388 19.3208 179.404 20.9051 181.651 20.9051C184.077 20.9051 185.999 19.1067 185.999 16.7431C185.999 14.294 184.06 12.6928 181.83 12.5984C181.591 12.5901 181.352 12.6414 181.113 12.7356C181.514 12.2816 184.376 8.9504 184.854 8.625H182.42C181.608 9.48988 180.788 10.4319 179.951 11.4253C178.661 12.9069 177.303 14.7907 177.303 16.8717Z" fill="#838383"/>
<path fill-rule="evenodd" clip-rule="evenodd" d="M147.36 19.0716L148.458 20.994H150.636L143.568 8.625L136.5 20.994H138.677L139.776 19.0716H147.36ZM146.267 17.1584L143.568 12.4354L140.869 17.1584H146.267Z" fill="#838383"/>
<path d="M164.906 8.625V10.5451H169.541V20.9811H171.747V10.5451H176.382V8.625H164.906Z" fill="#838383"/>
<path fill-rule="evenodd" clip-rule="evenodd" d="M158.782 10.5538H154.932L152.726 10.5451V8.64236H159.04C161.173 8.64236 162.917 10.0717 162.917 12.2157C162.917 13.8087 161.976 15.0401 160.24 15.5652L163.637 20.9812H161.154L157.877 15.7461H154.932V20.9812H152.726V13.8776H154.932H158.782C159.751 13.8776 160.748 13.249 160.748 12.2157C160.748 11.2428 159.834 10.5538 158.782 10.5538Z" fill="#838383"/>
</svg>
