<svg width="177" height="18" viewBox="0 0 177 18" fill="none" xmlns="http://www.w3.org/2000/svg"><path d="M16.83 5.334V2.346s-7.61-4.428-13.841 0A8.992 8.992 0 0 0 0 9.109c0 4.405 3.46 6.764 3.46 6.764s5.602 3.932 13.624 0v-7.55H8.416v2.831h5.522v2.831s-10.32 3.637-10.163-4.98c0 0-.471-4.772 4.64-5.4 0 0 3.382-.945 8.416 1.73ZM30.2.389h-3.146V17.62H30.2V.389Zm8.022 0h3.618l5.19 12.495L52.378.39h3.775l-7.707 16.839h-2.831L38.222.388Zm25.482 0V17.62h13.998v-3.164H67.165v-4.09h7.393V7.695h-7.393v-4.09h10.538V.39H63.705Zm23.121 16.839h3.304V6.12l10.224 11.107h2.831V.388h-3.146v11.553L89.56.39h-2.735v16.839Zm40.424-11.421s-1.101-2.202-6.606-2.36c0 0-6.763-.052-6.449 5.558.315 5.61 6.522 5.296 6.522 5.296s5.747-.158 6.534-2.045v3.556s-1.271 1.416-6.534 1.809c0 0-9.982.297-9.982-7.882 0 0-.629-9.578 9.28-9.35 0 0 5.505-.088 7.235 1.485v3.933Zm8.966-5.418h3.461v7.148h8.965V.39h3.304v16.839h-3.146v-6.703h-9.281v6.703h-3.303V.388Zm29.1 9.979v6.86h3.459v-6.86l7.865-9.98h-4.089l-5.506 6.992-5.19-6.991h-4.247l7.708 9.98Z" fill="#000"/></svg>