<svg width="220" height="150" viewBox="0 0 220 150" fill="none" xmlns="http://www.w3.org/2000/svg">
<rect width="220" height="150" fill="white"/>
<path fill-rule="evenodd" clip-rule="evenodd" d="M24.6719 67.7721H26.8904H27.0683H30.2625C34.1691 67.7721 37.4526 70.9742 37.4526 75.0019C37.4526 78.9462 34.1683 82.1482 30.2625 82.2317H27.0683H26.8019H24.6719V67.7721ZM27.0683 69.4965V80.5066H29.6418C33.1926 80.4231 34.9668 77.7956 34.9668 75.0817C34.9668 72.2872 33.1918 69.9876 30.2625 69.5762L27.0683 69.4965ZM46.8612 67.4405C51.6549 67.4405 55.4697 70.8095 55.4697 75.0012C55.4697 79.1891 51.6541 82.5588 46.8612 82.5588C42.1569 82.5588 38.2528 79.1899 38.2528 75.0012C38.2519 70.8103 42.1569 67.4405 46.8612 67.4405ZM46.8612 69.2491C50.3235 69.2491 53.1626 71.7961 53.1626 75.0019C53.1626 78.1235 50.3235 80.6705 46.8612 80.6705C43.4892 80.6705 40.6476 78.1235 40.6476 75.0019C40.6476 71.7961 43.4884 69.2491 46.8612 69.2491ZM56.1805 67.7721H58.4876V80.5073H62.9255V82.2317H58.4876H57.4234H56.1805V67.7721ZM70.3812 67.3608C72.1562 67.3608 73.8435 67.8519 75.2626 68.6746V71.3051C74.1075 69.9876 72.3333 69.1656 70.3812 69.1656C66.919 69.1656 64.1676 71.7961 64.1676 75.0019C64.1676 78.1235 66.919 80.751 70.3812 80.751C72.3341 80.751 74.1083 79.9321 75.2626 78.6153V81.3263C73.8427 82.149 72.1554 82.6438 70.3812 82.6438C65.6769 82.6438 61.7727 79.1906 61.7727 75.0027C61.7727 70.8103 65.6777 67.3608 70.3812 67.3608ZM78.3691 80.5066H83.9613V82.231H78.3691H75.9726V80.5066V75.4125V73.6844V69.413V67.7721H78.3691H83.9613V69.413H78.3691V73.6844H83.9613V75.4125H78.3691V80.5066ZM92.7485 81.2458C92.482 81.4932 92.2148 81.6572 91.8598 81.8204C91.5933 81.9843 91.2392 82.0678 90.8834 82.1475C90.7948 82.1475 90.7063 82.1475 90.6177 82.231C90.5284 82.231 90.4398 82.231 90.3513 82.231C90.0848 82.231 89.9069 82.1475 89.6405 82.1475C89.374 82.0678 89.1961 81.9836 88.9297 81.8204C88.7526 81.6564 88.5755 81.409 88.3984 81.1616C88.309 80.9179 88.2205 80.6705 88.1319 80.4231V80.3397C88.1319 80.2599 88.1319 80.2599 88.1319 80.2599C88.1319 80.1765 88.1319 80.1765 88.1319 80.1765C88.1319 80.0968 88.1319 80.0968 88.1319 80.0125H88.2205C88.2205 79.9328 88.2205 79.9328 88.2205 79.9328C88.2205 79.9328 88.2205 79.9328 88.2205 79.8493C88.3082 79.438 88.4869 79.1109 88.8411 78.7793C89.1953 78.5356 89.5503 78.2882 89.9061 78.0408C89.729 77.7971 89.5503 77.5497 89.3732 77.3023C89.1953 77.1384 89.1068 76.8112 89.1068 76.5638V76.4804C89.1068 76.4006 89.1068 76.4006 89.1068 76.3164C89.1068 76.233 89.1068 76.233 89.1068 76.233C89.1953 76.233 89.1953 76.1532 89.1953 76.1532C89.2847 75.8261 89.4626 75.5787 89.729 75.3306C90.0832 75.1666 90.3496 75.0832 90.7046 75.0832C90.7046 75.0832 90.7046 75.0832 90.7932 75.0832H90.8817C90.8817 75.0832 90.8817 75.0832 90.9711 75.0832C91.3253 75.0832 91.7696 75.2508 92.1254 75.4945C92.3911 75.7419 92.5682 76.069 92.5682 76.5646C92.5682 76.9759 92.4804 77.3031 92.2132 77.5505C91.8582 77.8776 91.5925 78.125 91.2375 78.2889L92.924 80.1772C93.0125 80.0133 93.1904 79.8501 93.3683 79.6027C93.5454 79.4388 93.634 79.2756 93.8127 79.1116L94.3448 79.6027C94.2562 79.7666 94.0783 79.9336 93.9898 80.0975C93.9012 80.2614 93.7233 80.4246 93.5454 80.5886C93.5454 80.5886 93.5454 80.5886 93.4569 80.672C93.4569 80.672 93.4569 80.7518 93.3683 80.7518L94.6104 82.0693H93.5454L92.7485 81.2458ZM90.7063 81.4932C90.9727 81.4932 91.2392 81.4098 91.5048 81.2458C91.6827 81.0819 91.9483 80.9187 92.1271 80.751C92.2148 80.751 92.2148 80.751 92.2148 80.751C92.2148 80.751 92.2148 80.751 92.3041 80.6713L90.3521 78.6153C90.3521 78.6988 90.3521 78.6988 90.2627 78.6988C90.1742 78.7785 90.1742 78.7785 90.1742 78.7785C89.9963 78.862 89.9077 78.9462 89.7314 79.0259C89.5519 79.1899 89.465 79.2733 89.3756 79.4373C89.2879 79.4373 89.2879 79.5207 89.2879 79.6012C89.1985 79.6847 89.1985 79.7651 89.1985 79.8486C89.11 79.9321 89.11 80.0125 89.11 80.0125C89.11 80.096 89.11 80.1765 89.11 80.2599C89.11 80.5871 89.1985 80.8345 89.4658 81.1624C89.82 81.4098 90.0864 81.4932 90.53 81.4932H90.6193C90.6185 81.4932 90.6185 81.4932 90.7063 81.4932ZM89.9963 76.3991C89.9963 76.4789 89.9963 76.4789 89.9963 76.4789V76.5623C89.9963 76.7263 89.9963 76.8895 90.0856 77.0534C90.1742 77.2174 90.3521 77.3843 90.4398 77.4648C90.5284 77.5482 90.5284 77.5482 90.6177 77.6287L90.7063 77.7122H90.7948C90.7948 77.7122 90.8834 77.7122 90.8834 77.6287C91.0613 77.549 91.2392 77.4648 91.4171 77.3016C91.5942 77.1376 91.6835 76.9744 91.7712 76.727C91.7712 76.6436 91.7712 76.6436 91.7712 76.6436C91.7712 76.5638 91.7712 76.5638 91.7712 76.5638C91.7712 76.3164 91.6827 76.1525 91.5048 75.9893C91.3269 75.9058 91.1506 75.8254 90.9727 75.8254C90.8834 75.8254 90.8834 75.8254 90.8834 75.8254C90.8834 75.8254 90.8833 75.8254 90.7948 75.8254C90.6177 75.8254 90.4398 75.8254 90.2619 75.9893C90.0856 76.0675 89.9963 76.2315 89.9963 76.3991ZM107.126 67.2773C110.233 67.2773 112.984 68.758 114.582 70.8945L112.541 71.8803C111.387 70.2357 109.433 69.1656 107.215 69.1656C103.665 69.1656 100.913 71.7961 100.913 75.0019C100.913 78.204 103.665 80.751 107.215 80.751C110.144 80.751 112.451 79.4373 112.63 76.6428H107.571V74.9185H112.451C112.451 74.9185 114.936 74.9185 115.116 74.9185C115.116 74.9185 115.116 70.4831 115.116 75.0019C115.116 79.5207 112.451 82.7228 107.127 82.7228C101.801 82.7228 98.4285 79.2733 98.4285 75.0019C98.4285 70.7261 102.333 67.2773 107.126 67.2773ZM113.783 82.2317L120.263 67.7721H121.772L128.25 82.2317H125.766L123.991 78.1235H118.043L116.269 82.2317H113.783ZM118.932 76.3149L121.061 71.1374L123.103 76.3149H118.932ZM150.972 82.2317L157.363 67.7721H158.871L165.35 82.2317H162.866L161.092 78.1235H155.143L153.368 82.2317H150.972ZM156.031 76.3149L158.161 71.1374L160.291 76.3149H156.031ZM181.859 82.2317L188.339 67.7721H189.848L196.328 82.2317H193.841L191.979 78.1235H186.12L184.346 82.2317H181.859ZM187.007 76.3149L189.049 71.1374L191.179 76.3149H187.007ZM133.842 69.413C135.44 69.577 135.971 70.1515 135.971 71.6329C135.971 73.0302 134.906 73.7686 133.575 73.7686H131.533V69.413H133.842ZM134.02 75.493H134.108C135.262 75.493 137.304 75.7404 137.304 78.1235C137.304 80.0118 135.529 80.5066 133.842 80.5066H134.195H131.533V75.4923H133.574H134.02V75.493ZM131.003 82.2317H131.533H134.996C137.748 82.2317 139.79 80.5073 139.79 78.1235C139.79 76.2315 138.546 74.838 136.771 74.2627C137.748 73.6844 138.281 72.6181 138.281 71.3043C138.281 69.1649 136.771 67.7714 134.375 67.7714C133.131 67.6879 131.801 67.7714 130.559 67.7714H130.468C130.468 67.7714 130.468 67.7714 130.381 67.7714H129.139V82.231H131.003V82.2317ZM145.735 69.413C147.244 69.577 147.777 70.1515 147.865 71.6329C147.865 73.0302 146.8 73.7686 145.468 73.7686H143.427V69.413H145.735ZM145.825 75.493C145.914 75.493 145.914 75.493 145.914 75.493C147.067 75.493 149.107 75.7404 149.107 78.1235C149.107 80.0118 147.332 80.5066 145.646 80.5066H146.09H143.427V75.4923H145.468H145.825V75.493ZM142.806 82.2317H143.427H146.89C149.641 82.2317 151.593 80.5073 151.593 78.1235C151.593 76.2315 150.351 74.838 148.576 74.2627C149.641 73.6844 150.172 72.6181 150.172 71.3043C150.172 69.1649 148.576 67.7714 146.267 67.7714C144.936 67.6879 143.694 67.7714 142.361 67.7714C142.273 67.7714 142.273 67.7714 142.273 67.7714H142.185H140.943V82.231H142.806V82.2317ZM166.416 67.7721H167.925L178.842 78.4514V67.7721H180.972V82.2317H179.374L168.634 71.6322V82.2317H166.416V67.7721Z" fill="black"/>
</svg>
