<svg width="139" height="44" viewBox="0 0 139 44" fill="none" xmlns="http://www.w3.org/2000/svg">
<path fill-rule="evenodd" clip-rule="evenodd" d="M62.6314 41.6326H62.6001C61.8264 41.6326 61.1955 41.0056 61.1955 40.2369V35.2952V3.92984H62.9571C67.0798 3.92984 70.3534 3.55354 73.7079 6.88701C77.6508 10.8048 77.6507 17.1781 73.7079 21.0959C71.8718 22.9205 69.3408 24.053 66.5584 24.053H63.4484C67.857 29.9203 71.9337 35.7818 76.3476 41.6453H74.9116V44H79.3147H90.707H92.1117V41.6453H90.707H90.3332C89.8664 41.6453 89.4648 41.4407 89.1926 41.0641L86.2079 36.9243L85.0334 35.2952L81.5841 30.5109H77.6292L81.0784 35.2952L85.6566 41.6453H85.6226H85.6105H85.5889H85.5649H85.5555H85.5224H85.5199H85.4895H85.4754H85.4569H85.4313H85.4246H85.3926H85.3877H85.3608H85.3446H85.3292H85.302H85.2979H85.2668H85.2597H85.2359H85.2179H85.2053H85.1764H85.1749H85.1446H85.1354H85.1145H85.0947H85.0847H85.055H85.0543H85.0254H85.0143H84.9961H84.9745H84.9669H84.9379H84.9351H84.909H84.8958H84.8802H84.8569H84.8516H84.8232H84.8181H84.7948H84.7796H84.7665H84.7413H84.7383H84.7103H84.7032H84.6823H84.6652H84.6544H84.6274H84.6265H84.5987H84.5897H84.571H84.5521H84.5434H84.5157H84.5145H84.4882H84.4771H84.4607H84.4397H84.4332H84.4057H84.4023H84.3782H84.365H84.3507H84.3277H84.3232H84.2957H84.2903H84.2682H84.2529H84.2407H84.2155H84.2131H84.1855H84.1779H84.1578H84.1403H84.1301H84.1026H84.1024H84.0745H84.0648H84.0466H84.0268H84.0186H83.9906H83.9887H83.9624H83.9504H83.9341H83.9119H83.9057H83.8772H83.8731H83.8486H83.8342H83.8198H83.7949H83.7909C83.3266 41.6453 82.927 41.443 82.6544 41.0698L73.1277 27.9829H77.3887C81.2629 27.9829 84.7834 26.4094 87.3345 23.8745C92.8133 18.4303 92.8134 9.55269 87.3345 4.10855C84.7835 1.57357 81.2628 0 77.3887 0C67.3286 0 56.5268 0 46.4668 0V3.92984H57.2405V25.9357V35.2952V41.6326H56.1138H54.7092V40.2369V25.9357V7.78893V6.2846C51.6384 6.2846 49.5375 6.2846 46.4668 6.2846V7.78893V8.63921H47.5622C48.3358 8.63921 48.9668 9.26627 48.9668 10.0351V40.2369C48.9668 41.0056 48.3358 41.6326 47.5622 41.6326H46.4668V43.9873C52.501 43.9873 56.5972 43.9873 62.6314 43.9873V41.6326ZM76.3436 24.0313C78.8624 23.8664 81.1385 22.7737 82.827 21.0959C86.7697 17.1781 86.7698 10.8048 82.827 6.88701C81.1385 5.2092 78.8624 4.11656 76.3435 3.95169C82.0332 9.43446 82.0399 18.5507 76.3436 24.0313Z" fill="black" fill-opacity="0.15"/>
<path d="M125.879 32.1312V24.0522L126.924 26.8204L118.224 12.3574H123.082L129.749 23.459H126.952L133.647 12.3574H138.139L129.438 26.8204L130.455 24.0522V32.1312H125.879Z" fill="black"/>
<path d="M103.878 32.1312V16.0862H97.5508V12.3574H114.782V16.0862H108.455V32.1312H103.878Z" fill="black"/>
<path d="M82.9566 32.4701C80.1506 32.4701 77.9566 31.6886 76.3748 30.1255C74.7929 28.5625 74.002 26.3309 74.002 23.4307V12.3574H78.5781V23.2612C78.5781 25.1444 78.9642 26.5003 79.7363 27.329C80.5085 28.1576 81.5913 28.5719 82.9848 28.5719C84.3785 28.5719 85.4614 28.1576 86.2334 27.329C87.0055 26.5003 87.3916 25.1444 87.3916 23.2612V12.3574H91.9114V23.4307C91.9114 26.3309 91.1204 28.5625 89.5385 30.1255C87.9565 31.6886 85.7626 32.4701 82.9566 32.4701Z" fill="black"/>
<path d="M50.4619 27.8941L51.6765 24.4194H61.846L63.0889 27.8941H50.4619Z" fill="black"/>
<path d="M46.0537 32.1312L54.8672 12.3574H59.387L68.2287 32.1312H63.4265L56.1949 14.6737H58.0028L50.743 32.1312H46.0537Z" fill="black"/>
<path d="M30.2384 28.4589H41.001V32.1312H25.6904V12.3574H40.6337V16.0297H30.2384V28.4589Z" fill="black"/>
<path d="M30.0049 20.3232H39.5245V23.8825H30.0049V20.3232Z" fill="black"/>
<path d="M0 32.1312V12.3574H9.66095C12.1468 12.3574 14.0159 12.8281 15.2682 13.7698C16.5206 14.7114 17.1468 15.9542 17.1468 17.4985C17.1468 18.5343 16.8925 19.4336 16.384 20.1963C15.8756 20.9589 15.1788 21.5475 14.2936 21.9618C13.4086 22.3761 12.3916 22.5832 11.2428 22.5832L11.7795 21.425C13.0225 21.425 14.1242 21.6276 15.0846 22.0325C16.0451 22.4373 16.7936 23.0352 17.3303 23.8262C17.8671 24.6171 18.1354 25.587 18.1354 26.7358C18.1354 28.4307 17.4669 29.7536 16.1299 30.7046C14.7927 31.6557 12.8248 32.1312 10.2259 32.1312H0ZM4.54801 28.6848H9.887C11.0734 28.6848 11.9726 28.4919 12.5847 28.1058C13.1967 27.7197 13.5027 27.103 13.5027 26.2555C13.5027 25.4269 13.1967 24.8102 12.5847 24.4053C11.9726 24.0004 11.0734 23.7979 9.887 23.7979H4.20905V20.4647H9.09602C10.2071 20.4647 11.0592 20.2716 11.6525 19.8856C12.2456 19.4994 12.5423 18.9109 12.5423 18.12C12.5423 17.3479 12.2456 16.7688 11.6525 16.3828C11.0592 15.9967 10.2071 15.8037 9.09602 15.8037H4.54801V28.6848Z" fill="black"/>
</svg>
